<?xml version="1.0" encoding="UTF-8"?>
<svg id="Camada_1" data-name="Camada 1" xmlns="http://www.w3.org/2000/svg" viewBox="0 0 250 250">
  <defs>
    <style>
      .cls-1 {
        fill: #f8f7f7;
      }

      .cls-2 {
        fill: #fcbf06;
      }

      .cls-3 {
        fill: #9b163a;
      }

      .cls-4 {
        fill: #99163a;
      }
    </style>
  </defs>
  <path class="cls-4" d="m122.3,230.11c-28.17-.58-54.36-11.76-75.38-34.41-13.85-14.92-22.67-32.54-25.94-52.64-5.37-33.02,2.89-62.43,24.95-87.65,14.99-17.13,33.89-28.01,56.12-33,11.18-2.51,22.48-3.18,33.88-1.92,28.03,3.1,51.33,15.35,69.71,36.69,12.55,14.57,20.37,31.47,23.52,50.47,6.33,38.19-8.51,76.26-38.96,99.99-14.14,11.02-30.06,18.02-47.75,20.97-5.8.97-11.63,1.41-20.14,1.48Zm2.22-11.32c51.79-.06,93.73-42.02,93.74-93.79.01-51.79-42.01-93.84-93.82-93.8-51.89.04-93.8,41.95-93.78,93.83.02,51.91,42.01,93.74,93.86,93.76Z"/>
  <path class="cls-2" d="m124.52,218.8c-51.85-.03-93.83-41.85-93.86-93.76-.02-51.88,41.89-93.79,93.78-93.83,51.81-.04,93.83,42.01,93.82,93.8-.01,51.77-41.95,93.73-93.74,93.79Zm-.14-13.45c44.35.03,80.38-35.91,80.43-80.21.05-44.46-35.9-80.47-80.34-80.5-44.27-.03-80.31,35.91-80.37,80.15-.06,44.48,35.87,80.53,80.29,80.56Z"/>
  <path class="cls-3" d="m124.39,205.35c-44.41-.03-80.35-36.09-80.29-80.56.06-44.23,36.1-80.18,80.37-80.15,44.45.03,80.39,36.05,80.34,80.5-.05,44.3-36.09,80.23-80.43,80.21Zm1.5-84.69c0-7.95,0-15.9,0-23.85,0-2.21-.33-2.7-2.41-3.45-.47-.17-.97-.35-1.46-.36-2.91-.08-5.83-.24-8.73-.11-2.35.1-3.14,1.09-3.12,3.19.08,15.65.17,31.29.23,46.94.01,2.68-.48,5.3-1.54,7.77-2,4.65-5.5,7.21-10.62,7.2-2.73,0-5.46-.19-8.18-.45-2.36-.23-4.54-1.07-6.38-2.63-3.35-2.83-4.61-6.6-4.7-10.82-.09-4.06-.03-8.13-.05-12.19-.06-11.58-.14-23.17-.19-34.75-.01-2.87-.71-3.95-3.56-4.17-3.15-.25-6.32-.16-9.48-.09-1.23.03-2.2.84-2.58,2.01-.35,1.11-.6,2.3-.61,3.46-.04,15.29-.04,30.58,0,45.87,0,1.72.11,3.46.45,5.14,2.01,10.01,7.65,16.99,17.49,20.17,7.86,2.54,15.86,2.47,23.83.48,6.63-1.66,12.19-5.11,16.19-10.74,3.5-4.91,5.55-10.31,5.45-16.48-.12-7.37-.03-14.75-.03-22.12Zm13.69,9.56c-.02.34-.06.61-.06.89,0,11.76,0,23.52,0,35.28,0,1.51,1,2.43,2.66,2.43,3.27.02,6.55.02,9.82.01,1.79,0,3.12-1.35,3.12-3.11,0-7.27,0-14.53,0-21.8,0-.42,0-.84,0-1.08,3.77-.2,7.4-.25,11-.61,5.4-.54,10.6-1.91,15.32-4.74,4.63-2.78,7.98-6.64,9.21-11.97.75-3.24,1.28-6.57,1.47-9.88.49-8.45-2.95-15-10.21-19.42-4.6-2.81-9.72-3.92-15.03-4-7.52-.12-15.03-.06-22.55-.03-2.56,0-4.58,1.69-4.79,4.2-.22,2.53-.09,5.09-.12,7.64,0,.8.47.87,1.13.87,8.24-.1,16.47-.18,24.71-.25,4.58-.04,8.56,2.83,9.67,7.26.5,1.99.61,4.12.6,6.19-.06,7.06-4.91,11.77-11.96,11.82-7.66.05-15.32.14-22.98.21-.31,0-.63.04-.99.07Z"/>
  <path class="cls-1" d="m125.89,120.66c0,7.37-.09,14.75.03,22.12.1,6.17-1.95,11.57-5.45,16.48-4,5.63-9.56,9.08-16.19,10.74-7.97,2-15.97,2.06-23.83-.48-9.84-3.18-15.48-10.15-17.49-20.17-.34-1.68-.45-3.43-.45-5.14-.03-15.29-.03-30.58,0-45.87,0-1.16.25-2.35.61-3.46.37-1.17,1.35-1.98,2.58-2.01,3.16-.07,6.34-.16,9.48.09,2.85.22,3.54,1.31,3.56,4.17.05,11.58.13,23.17.19,34.75.02,4.06-.04,8.13.05,12.19.09,4.22,1.35,7.99,4.7,10.82,1.84,1.56,4.02,2.4,6.38,2.63,2.71.27,5.45.45,8.18.45,5.12,0,8.62-2.55,10.62-7.2,1.06-2.47,1.56-5.09,1.54-7.77-.06-15.65-.15-31.29-.23-46.94-.01-2.1.77-3.09,3.12-3.19,2.9-.13,5.82.04,8.73.11.49.01.99.19,1.46.36,2.09.75,2.41,1.24,2.41,3.45,0,7.95,0,15.9,0,23.85Z"/>
  <path class="cls-1" d="m139.58,130.22c.37-.03.68-.06.99-.07,7.66-.07,15.32-.16,22.98-.21,7.05-.05,11.9-4.77,11.96-11.82.02-2.06-.1-4.2-.6-6.19-1.11-4.43-5.09-7.29-9.67-7.26-8.24.07-16.47.15-24.71.25-.67,0-1.14-.06-1.13-.87.03-2.55-.09-5.11.12-7.64.21-2.51,2.24-4.19,4.79-4.2,7.52-.03,15.04-.09,22.55.03,5.31.08,10.43,1.2,15.03,4,7.26,4.43,10.7,10.97,10.21,19.42-.19,3.31-.73,6.65-1.47,9.88-1.23,5.33-4.58,9.19-9.21,11.97-4.71,2.83-9.91,4.19-15.32,4.74-3.6.36-7.23.41-11,.61,0,.24,0,.66,0,1.08,0,7.27,0,14.53,0,21.8,0,1.77-1.33,3.11-3.12,3.11-3.27,0-6.55,0-9.82-.01-1.66,0-2.66-.92-2.66-2.43,0-11.76,0-23.52,0-35.28,0-.28.04-.56.06-.89Z"/>
</svg>